<?xml version="1.0" encoding="UTF-8"?><svg id="Layer_1" xmlns="http://www.w3.org/2000/svg" viewBox="0 0 344 331"><defs><style>.cls-1{fill:#fff;}.cls-2{fill:#ffd000;}</style></defs><g id="Layer_2"><circle class="cls-2" cx="181" cy="163" r="163"/></g><polygon class="cls-1" points="186.1667 93.6667 152.6667 150.6667 178.6667 122.6667 178 137.8333 214 85.1667 185.6667 109.5 186.1667 93.6667"/><path class="cls-1" d="m149.8125,218.1172c-1.4487,2.2891-3.9683,3.8008-6.8657,3.8008-4.4722,0-8.0415-3.6113-8.0415-8.084s3.5693-8.1045,8.0205-8.1045c2.8555,0,5.375,1.5117,6.7607,3.7998l-2.5405,1.8066c-1.0708-1.6797-2.6455-2.499-4.1992-2.499-2.6245,0-4.7031,2.2256-4.7031,4.9971,0,2.75,2.0786,4.9766,4.7031,4.9766,1.6167,0,3.2124-.8193,4.3462-2.499l2.5195,1.8057Z"/><path class="cls-1" d="m150.6553,213.8125c0-4.4717,3.6113-8.083,8.0835-8.083,4.4932,0,8.1045,3.6113,8.1045,8.083s-3.6113,8.1055-8.0835,8.1055c-4.4932,0-8.1045-3.6328-8.1045-8.1055Zm3.3384,0c0,2.793,2.0786,4.9766,4.7661,4.9766,2.6455,0,4.7451-2.1836,4.7451-4.9766,0-2.75-2.1206-4.9756-4.7661-4.9756-2.6665,0-4.7451,2.2256-4.7451,4.9756Z"/><path class="cls-1" d="m175.5181,206.002c4.5142,0,8.1885,3.3594,8.1885,7.8105,0,4.4941-3.6743,7.832-8.1675,7.832h-6.3618v-15.6426h6.3408Zm.021,12.7031c2.7085,0,4.8291-2.0781,4.8291-4.8926,0-2.834-2.1206-4.8711-4.8501-4.8711h-3.0864v9.7637h3.1074Z"/><path class="cls-1" d="m186.04,221.6445v-15.6426h8.3145v2.9395h-5.0601v2.9189h5.8789v2.9395h-5.8789v3.9053h6.4458v2.9395h-9.7002Z"/><path class="cls-1" d="m217.2441,219.5449h-7.5801l-1.0078,2.0996h-3.3594l8.252-15.915,8.2725,15.915h-3.5479l-1.0293-2.0996Zm-6.1729-2.9395h4.7451l-2.3936-4.8711-2.3516,4.8711Z"/><path class="cls-1" d="m226.4434,221.6445h-3.2539v-15.6426h3.2539v15.6426Z"/><path d="m114.7051,158.2021v27.2842h-5.5796v-16.1621l-8.7109,6.2998-8.7109-6.2998v16.1621h-5.5791v-27.2842l14.29,10.834,14.2905-10.834Z"/><path d="m118.2007,185.4863l7.3428-11.9863c-3.7432-.4678-6.6948-3.708-6.6948-7.5957,0-3.9951,3.3472-7.7021,7.6309-7.7021,4.2114,0,7.667,3.4912,7.667,7.7021,0,1.5479-.5039,2.9883-1.2598,4.248l-6.479,10.6182h8.7827v4.7158h-16.9897Zm8.2427-16.7383c1.5117,0,2.772-1.2598,2.772-2.7715s-1.2603-2.7715-2.772-2.7715-2.7715,1.2598-2.7715,2.7715,1.2598,2.7715,2.7715,2.7715Z"/><path d="m167.1206,158.2021v27.2842h-5.5796v-16.1621l-8.7109,6.2998-8.7109-6.2998v16.1621h-5.5791v-27.2842l14.29,10.834,14.2905-10.834Z"/><path d="m192.1431,185.4863v-21.7773h-6.623v-5.0391h19.2573v5.0391h-7.0547v21.7773h-5.5796Z"/><path d="m208.0195,185.4863v-26.8164h14.2539v5.0391h-8.6748v5.0039h10.0791v5.0391h-10.0791v6.6953h11.0508v5.0391h-16.6299Z"/><path d="m253.0889,179.4395c-2.4844,3.9229-6.8037,6.5146-11.7705,6.5146-7.668,0-13.7871-6.1914-13.7871-13.8584s6.1191-13.8936,13.751-13.8936c4.8955,0,9.2148,2.5908,11.5898,6.5146l-4.3555,3.0957c-1.835-2.8799-4.5352-4.2832-7.1982-4.2832-4.5,0-8.0635,3.8154-8.0635,8.5664,0,4.7158,3.5635,8.5312,8.0635,8.5312,2.7715,0,5.5068-1.4043,7.4502-4.2832l4.3203,3.0957Z"/><path d="m261.9824,158.6699v10.043h12.3105v-10.043h5.5791v26.8164h-5.5791v-11.7344h-12.3105v11.7344h-5.5791v-26.8164h5.5791Z"/></svg>