<?xml version="1.0" encoding="utf-8"?>
<!-- Generator: Adobe Illustrator 27.5.0, SVG Export Plug-In . SVG Version: 6.00 Build 0)  -->
<svg version="1.1" xmlns="http://www.w3.org/2000/svg" xmlns:xlink="http://www.w3.org/1999/xlink" x="0px" y="0px"
	 viewBox="0 0 750 500" style="enable-background:new 0 0 750 500;" xml:space="preserve">
<g id="OBJECTS">
	<polygon style="opacity:0.48;fill:#FCF6F2;" points="509.655,56.83 663.837,139.487 636.154,443.662 513.926,441.425 	"/>
	<path style="opacity:0.48;fill:#EFE9E6;" d="M101.138,444.153c-1.335-0.236-10.819-315.151-10.819-315.151L509.655,56.83
		l3.619,387.398L101.138,444.153z"/>
	<g>
		<rect x="105.916" y="390.612" style="fill:#B7C7E2;" width="149.473" height="53.616"/>
		<rect x="152.473" y="390.612" style="fill:#D7E1F4;" width="102.916" height="53.616"/>
		<g>
			<path style="fill:#FBCF72;" d="M270.921,241.589c0-49.854-40.415-90.269-90.269-90.269c-49.854,0-90.269,40.415-90.269,90.269
				c0,32.278,16.945,60.593,42.42,76.55l11.533,42.831h73.895l10.886-43.216C254.25,301.729,270.921,273.607,270.921,241.589z"/>
			<path style="opacity:0.62;fill:#FFFFFF;" d="M137.821,204.186c-16.347,22.96-1.611,64.437-18.067,52.721
				c-16.456-11.716-16.544-39.826-0.197-62.786c16.347-22.96,42.939-32.074,59.394-20.358
				C195.407,185.479,154.168,181.226,137.821,204.186z"/>
			
				<ellipse transform="matrix(0.9917 -0.1287 0.1287 0.9917 -34.9643 18.6752)" style="opacity:0.62;fill:#FFFFFF;" cx="127.032" cy="279.902" rx="10.737" ry="13.966"/>
			<g>
				<polygon style="fill:#F0F6FF;" points="224.022,390.611 141.492,390.611 141.842,386.961 142.742,377.551 143.522,369.431 
					144.332,360.971 218.232,360.971 220.572,372.931 222.272,381.661 				"/>
				<path style="fill:#B7C7E2;" d="M222.272,381.661c-9.84-1.52-58.56-9.06-78.75-12.23l0.81-8.46h5.54l70.7,11.96L222.272,381.661z
					"/>
				<path style="fill:#B7C7E2;" d="M219.962,390.611h-54.83c-9.53-1.49-17.98-2.8-23.29-3.65l0.9-9.41L219.962,390.611z"/>
			</g>
			<g>
				<path style="fill:#FFE8C0;" d="M180.626,361.039l-4.998-0.137c0.006-0.23,0.653-23.588,2.527-69.391
					c0.151-3.682,0.003-7.033-0.384-10.065c-1.74,0.577-3.431,1.056-5.057,1.429c-14.097,3.237-20.005-2.015-22.479-6.991
					c-3.926-7.894-3.811-14.944,0.313-19.344c3.606-3.847,9.715-4.747,15.563-2.296c8.312,3.485,13.08,11.457,15.374,20.437
					c5.211-2.216,10.779-5.225,16.246-8.782c3.476-17.109,8.368-31.214,15.253-36.529c3.049-2.354,6.377-3.102,9.898-2.218
					c6.934,1.738,7.928,6.273,7.902,8.822c-0.097,9.787-14.343,22.154-20.463,27.017c-2.653,2.108-5.377,4.103-8.13,5.964
					c-1.843,9.577-3.42,20.861-4.686,33.678c-2.949,29.865-3.27,58.082-3.273,58.364l-5-0.052c0.031-3.039,0.63-50.739,7.233-88.337
					c-4.734,2.841-9.462,5.241-13.962,7.083c0.622,4.033,0.809,8.139,0.65,12.025C181.278,337.48,180.632,360.809,180.626,361.039z
					 M159.569,257.874c-2.166,0-4.083,0.71-5.374,2.087c-2.614,2.788-2.426,7.781,0.516,13.697
					c2.436,4.897,8.116,6.357,16.883,4.345c1.673-0.384,3.436-0.899,5.267-1.533c-2.389-9.848-7.59-15.477-12.685-17.614
					C162.605,258.198,161.03,257.874,159.569,257.874z M220.078,231.798c-1.395,0-2.707,0.502-4.04,1.531
					c-4.72,3.644-8.913,13.415-12.342,28.436c1.186-0.875,2.359-1.772,3.513-2.689c11.232-8.924,18.522-18.012,18.574-23.151
					c0.008-0.863,0.028-2.883-4.119-3.923C221.121,231.866,220.594,231.798,220.078,231.798z"/>
			</g>
		</g>
		<rect x="227.867" y="427.561" style="fill:#B7C7E2;" width="21.15" height="11.019"/>
		<rect x="201.122" y="427.561" style="fill:#B7C7E2;" width="21.15" height="11.019"/>
		<rect x="175.543" y="427.561" style="fill:#B7C7E2;" width="21.15" height="11.019"/>
	</g>
	<g>
		<g>
			<g>
				<path style="fill:#00256F;" d="M533.38,447.497c-1.652,0-3.122-1.174-3.437-2.857c-6.911-36.933,30.971-44.602,31.354-44.675
					c1.899-0.361,3.732,0.884,4.094,2.782c0.362,1.898-0.882,3.729-2.779,4.093c-1.34,0.262-31.402,6.509-25.788,36.513
					c0.355,1.9-0.896,3.729-2.797,4.084C533.81,447.478,533.593,447.497,533.38,447.497z"/>
			</g>
			<g>
				<path style="fill:#00256F;" d="M528.917,293.822c-6.483,0-14.043-1.352-21.184-5.884C493.65,279,485.7,260.611,484.105,233.281
					c-0.112-1.93,1.36-3.585,3.29-3.698c1.917-0.106,3.585,1.36,3.698,3.29c1.457,24.955,8.317,41.493,20.39,49.154
					c14.348,9.106,31.474,2.407,31.645,2.338c1.792-0.72,3.832,0.151,4.552,1.945c0.72,1.794-0.151,3.832-1.945,4.552
					C545.243,291.059,538.179,293.822,528.917,293.822z"/>
			</g>
			<g>
				<g>
					<g>
						<g>
							<g>
								<path style="fill:#00256F;" d="M353.059,431.243c-0.444,0.052-0.896,0.077-1.355,0.072
									c-5.238-0.061-9.335-3.984-9.152-8.763l6.214-162.788c0.181-4.779,4.583-8.604,9.813-8.543
									c5.238,0.061,9.335,3.984,9.152,8.763l-6.214,162.788C361.351,427.131,357.679,430.697,353.059,431.243z"/>
							</g>
						</g>
						<g>
							<polygon style="fill:#00256F;" points="345.419,426.286 345.44,432.749 356.184,433.07 357.964,427.507 							"/>
						</g>
					</g>
				</g>
				<g>
					<polygon style="fill:#C6D1E5;" points="345.44,432.749 340.134,444.274 361.924,444.274 356.184,433.07 					"/>
				</g>
				<g>
					<g>
						<g>
							<g>
								<g>
									<path style="fill:#001E4F;" d="M399.095,429.817c-0.435,0.104-0.881,0.182-1.338,0.23
										c-5.209,0.553-9.738-2.863-10.116-7.63l-12.896-162.395c-0.38-4.767,3.544-9.082,8.745-9.633
										c5.209-0.553,9.738,2.863,10.116,7.63l12.896,162.395C406.848,424.763,403.618,428.735,399.095,429.817z"/>
								</g>
							</g>
							<g>
								<polygon style="fill:#001E4F;" points="390.926,425.79 391.705,432.206 402.412,431.267 403.529,425.533 								"/>
							</g>
						</g>
					</g>
					<g>
						<polygon style="fill:#C6D1E5;" points="391.705,432.206 388.766,444.274 426.344,444.274 426.344,438.512 402.412,431.267 
													"/>
					</g>
				</g>
				<g>
					<g>
						<path style="fill:#476DB3;" d="M426.631,226.439c-26.548,0-42.516-44.306-44.25-49.358c-1.255-3.657,0.693-7.638,4.35-8.893
							c3.653-1.255,7.638,0.692,8.893,4.35c4.487,13.021,17.967,39.901,31.007,39.901c14.721,0,16.407-11.795,16.596-14.159
							c0.236-3.859,3.556-6.763,7.412-6.529c3.859,0.236,6.793,3.586,6.558,7.445C456.621,208.619,449.492,226.439,426.631,226.439z
							"/>
					</g>
				</g>
				<g>
					<g>
						<path style="fill:#388EFA;" d="M386.429,165.121l-42.556-1.467c-5.144-0.177-9.274,4.205-8.793,9.33l6.531,69.485h53.857
							l-0.798-68.915C394.618,168.992,390.988,165.279,386.429,165.121z"/>
					</g>
				</g>
				<g>
					<g>
						<path style="fill:#00256F;" d="M395.469,242.469c0,0,5.159,21.984-22.094,27.031c-27.253,5.047-30.939-18.257-31.763-27.031
							H395.469z"/>
					</g>
				</g>
				<g>
					<g>
						<path style="fill:#00256F;" d="M357.04,141.989c0,0-4.6-6.06-2.927-11.316c1.672-5.256,8.122-5.256,8.122-5.256l-2.508,16.572
							H357.04z"/>
					</g>
					<g>
						<g>
							<path style="fill:#F6C19F;" d="M367.196,174.445L367.196,174.445c-2.226,0-4.242-0.902-5.701-2.361
								c-1.459-1.459-2.361-3.475-2.361-5.701V138.97h16.125v27.413C375.258,170.835,371.648,174.445,367.196,174.445z"/>
						</g>
						<g>
							<path style="fill:#F6C19F;" d="M374.004,163.29L374.004,163.29c-8.477,0-15.349-6.872-15.349-15.349v-10.631
								c0-8.477,6.872-15.349,15.349-15.349h0c8.477,0,15.349,6.872,15.349,15.349v10.631c0,3.026-0.876,5.848-2.388,8.225
								C384.241,160.449,379.454,163.29,374.004,163.29z"/>
						</g>
						<g>
							<circle style="fill:#F6C19F;" cx="358.655" cy="146.449" r="6.211"/>
						</g>
						<g>
							<path style="fill:#BD695D;" d="M358.724,149.249c-0.98,0.447-2.284-0.309-2.914-1.69c-0.63-1.38-0.346-2.861,0.633-3.308
								c0.98-0.447,2.284,0.309,2.914,1.689C359.987,147.32,359.703,148.801,358.724,149.249z"/>
						</g>
						<g>
							<path style="fill:#BD695D;" d="M361.406,156.708c0,0,3.46,7.015,13.852,6.53v4.691
								C375.258,167.929,362.724,167.623,361.406,156.708z"/>
						</g>
						<g>
							<g>
								<path style="fill:#00256F;" d="M375.093,139.531c0.402,1.331-1.356,0.162-2.945,0.641c-1.589,0.48-2.406,2.426-2.808,1.095
									c-0.402-1.331,0.56-2.798,2.149-3.278C373.078,137.511,374.691,138.201,375.093,139.531z"/>
							</g>
							<g>
								<path style="fill:#00256F;" d="M391.705,141.53c-0.321,1.3-1.203-0.532-2.755-0.916c-1.552-0.383-3.185,0.827-2.864-0.473
									c0.321-1.3,1.839-2.042,3.391-1.659C391.029,138.866,392.026,140.23,391.705,141.53z"/>
							</g>
							<g>
								<circle style="fill:#00256F;" cx="372.934" cy="143.344" r="1.543"/>
							</g>
							<g>
								<path style="fill:#00256F;" d="M389.079,143.888c0,0.838-0.679,1.517-1.517,1.517s-1.517-0.679-1.517-1.517
									c0-0.838,0.679-1.517,1.517-1.517S389.079,143.05,389.079,143.888z"/>
							</g>
						</g>
						<g>
							<path style="fill:#BD695D;" d="M381.258,140.31c0,0-0.823,4.072,0.441,4.543s2.47,0.794,2.029,1.911
								c-0.441,1.117-3.764,1.999-4.47,0.235C378.553,145.236,380.787,139.531,381.258,140.31z"/>
						</g>
						<g>
							<path style="fill:#FFFFFF;" d="M381.355,153.658c-0.461,2.461-2.873,4.074-5.388,3.603c-2.515-0.471-4.18-2.848-3.719-5.308
								c0.461-2.461,2.278-0.896,4.793-0.425C379.555,151.999,381.815,151.197,381.355,153.658z"/>
						</g>
					</g>
					<g>
						<path style="fill:#00256F;" d="M358.655,140.238l0.478,3.65l2.273-0.069l-0.843-5.458c0,0,10.076-0.977,11.607-7.079
							l-3.838-2.878c0,0,6.415,1.553,10.79,0c4.375-1.553,8.441,1.709,8.441,1.709s-1.796-9.473-11.591-11.026
							c-9.794-1.553-16.71,5.972-18.388,11.347C355.905,135.809,358.655,140.238,358.655,140.238z"/>
					</g>
					<g>
						<path style="fill:#00256F;" d="M361.614,126.095c0,0,0.172-5.671-1.44-4.835c-1.613,0.836-0.358,3.762-0.358,3.762
							s-2.449-1.612-3.106-0.537c-0.657,1.075,4.121,2.926,4.121,2.926L361.614,126.095z"/>
					</g>
				</g>
				<g>
					<g>
						<path style="fill:#476DB3;" d="M324.169,244.045c-3.811,0-7.417-0.532-10.58-1.813c-5.404-2.188-9.22-6.285-11.036-11.85
							c-3.689-11.304,1.154-25.744,14.393-42.916c9.129-11.841,19.017-20.797,19.433-21.172c2.871-2.589,7.297-2.359,9.886,0.512
							c2.588,2.871,2.359,7.296-0.511,9.885c-0.151,0.137-9.504,8.633-17.833,19.469c-9.872,12.844-14.155,23.456-12.059,29.879
							c0.537,1.645,1.4,2.577,2.979,3.216c8.364,3.387,28.923-3.971,40.854-10.276c3.417-1.807,7.653-0.499,9.46,2.92
							c1.806,3.418,0.499,7.653-2.919,9.459C363.34,232.889,341.618,244.044,324.169,244.045z"/>
					</g>
				</g>
				<g>
					<g>
						<g>
							<path style="fill:#C6D1E5;" d="M530.43,349.131c-3.657,0-7.366-0.371-11.117-1.512c-21.429-6.52-23.414-32.806-24.728-50.2
								c-0.094-1.245-0.185-2.456-0.281-3.621c-0.7-8.572-0.932-17.257-1.157-25.656c-0.258-9.623-0.524-19.574-1.501-29.247
								c-1.012-10.03-2.613-21.466-6.807-30.243c-4.598-9.622-11.585-14.456-21.363-14.778l0.263-7.996
								c30.698,1.01,34.189,35.594,35.867,52.213c1.006,9.967,1.276,20.068,1.538,29.837c0.222,8.292,0.452,16.866,1.134,25.22
								c0.096,1.181,0.189,2.408,0.284,3.67c1.218,16.131,2.887,38.222,19.079,43.149c5.774,1.756,11.825,1.169,18.23,0.546
								c3.332-0.324,6.777-0.658,10.263-0.658v8c-3.098,0-6.203,0.302-9.489,0.621C537.292,348.8,533.884,349.131,530.43,349.131z"
								/>
						</g>
					</g>
					<g>
						<g>
							<g>
								<path style="fill:#D7E1F4;" d="M455.232,211.821H432.32c-3.922,0-7.102-3.18-7.102-7.102v-29.689
									c0-1.961,0.795-3.736,2.08-5.022c1.285-1.285,3.061-2.08,5.022-2.08h22.912c7.665,0,13.878,6.214,13.878,13.878v16.136
									C469.111,205.608,462.897,211.821,455.232,211.821z"/>
							</g>
						</g>
						<g>
							<g>
								<path style="fill:#FFFFFF;" d="M442.35,210.996h-8.608c-3.922,0-7.102-3.18-7.102-7.102v-26.818
									c0-2.076,0.891-3.943,2.31-5.242c1.263-1.155,2.945-1.86,4.791-1.86h8.608c3.922,0,7.102,3.18,7.102,7.102v26.818
									C449.452,207.816,446.273,210.996,442.35,210.996z"/>
							</g>
						</g>
						<g style="opacity:0.48;">
							<g>
								<path style="fill:#D7E1F4;" d="M442.191,208.617h-9.284c-2.182,0-3.951-1.769-3.951-3.951V176.44
									c0-1.006,0.376-1.925,0.996-2.622c0.724-0.815,1.78-1.329,2.955-1.329h9.284c2.182,0,3.951,1.769,3.951,3.951v28.227
									C446.142,206.848,444.373,208.617,442.191,208.617z"/>
							</g>
						</g>
						<g>
							<g>
								<path style="fill:#D7E1F4;" d="M433.913,186.632h-11.184c-2.525,0-4.572-2.047-4.572-4.572l0,0
									c0-1.152,0.426-2.205,1.129-3.009c0.838-0.958,2.07-1.563,3.442-1.563h11.184c2.525,0,4.572,2.047,4.572,4.572l0,0
									C438.484,184.585,436.438,186.632,433.913,186.632z"/>
							</g>
						</g>
						<g>
							<g>
								<path style="fill:#C6D1E5;" d="M424.981,185.29h-4.06c-0.916,0-1.659-1.361-1.659-3.039l0,0c0-0.766,0.155-1.466,0.41-2
									c0.304-0.637,0.751-1.039,1.249-1.039h4.06c0.916,0,1.659,1.361,1.659,3.04l0,0
									C426.641,183.929,425.898,185.29,424.981,185.29z"/>
							</g>
						</g>
						<g>
							<g>
								<path style="fill:#D7E1F4;" d="M433.913,203.474h-11.184c-2.525,0-4.572-2.047-4.572-4.572l0,0
									c0-1.152,0.426-2.205,1.129-3.009c0.838-0.958,2.07-1.563,3.442-1.563h11.184c2.525,0,4.572,2.047,4.572,4.572l0,0
									C438.484,201.427,436.438,203.474,433.913,203.474z"/>
							</g>
						</g>
						<g>
							<g>
								<path style="fill:#C6D1E5;" d="M424.981,202.132h-4.06c-0.916,0-1.659-1.361-1.659-3.039l0,0c0-0.766,0.155-1.466,0.41-2
									c0.304-0.637,0.751-1.039,1.249-1.039h4.06c0.916,0,1.659,1.361,1.659,3.039l0,0
									C426.641,200.771,425.898,202.132,424.981,202.132z"/>
							</g>
						</g>
					</g>
				</g>
				<g>
					<g>
						<path style="fill:#C6D1E5;" d="M249.08,442.404c-12.302,0-24.55-1.334-36.559-2.641c-6.838-0.744-13.909-1.514-20.791-2.009
							l0.599-7.629c7.036,0.505,14.184,1.283,21.097,2.036c19.712,2.147,40.098,4.367,59.635,0.374
							c19.294-3.943,23.308-26.024,24.69-47.104c0.764-11.657,0.281-23.603-0.185-35.156c-0.397-9.8-0.806-19.934-0.469-29.973
							c0.102-3.021,0.178-6.112,0.256-9.251c0.49-19.766,1.046-42.169,8.324-60.805c7.417-18.995,26.207-36.784,51.476-33.706
							l-1.011,7.589c-20.918-2.548-36.658,12.626-42.971,28.794c-6.806,17.429-7.345,39.148-7.821,58.31
							c-0.079,3.161-0.156,6.273-0.258,9.315c-0.328,9.768,0.076,19.764,0.467,29.431c0.475,11.743,0.966,23.886,0.176,35.931
							c-1.031,15.716-3.175,48.419-31.003,54.106C266.2,441.76,257.626,442.404,249.08,442.404z"/>
					</g>
				</g>
				<g>
					<g>
						<path style="fill:#D7E1F4;" d="M368.725,242.783h22.912c3.922,0,7.102-3.18,7.102-7.102v-29.689
							c0-1.961-0.795-3.736-2.08-5.022c-1.285-1.285-3.061-2.08-5.022-2.08h-22.912c-7.665,0-13.878,6.214-13.878,13.878v16.136
							C354.846,236.569,361.06,242.783,368.725,242.783z"/>
					</g>
					<g>
						<path style="fill:#FFFFFF;" d="M381.607,241.957h8.608c3.922,0,7.102-3.18,7.102-7.102v-26.818c0-2.076-0.89-3.943-2.31-5.242
							c-1.263-1.155-2.945-1.86-4.792-1.86h-8.608c-3.922,0-7.102,3.18-7.102,7.102v26.818
							C374.505,238.778,377.684,241.957,381.607,241.957z"/>
					</g>
					<g style="opacity:0.48;">
						<path style="fill:#D7E1F4;" d="M381.766,239.579h9.284c2.182,0,3.951-1.769,3.951-3.951v-28.227
							c0-1.006-0.376-1.925-0.996-2.622c-0.724-0.815-1.78-1.329-2.955-1.329h-9.284c-2.182,0-3.951,1.769-3.951,3.951v28.227
							C377.815,237.81,379.584,239.579,381.766,239.579z"/>
					</g>
					<g>
						<path style="fill:#C6D1E5;" d="M385.083,216.251h4.06c0.916,0,1.659-1.361,1.659-3.04l0,0c0-0.766-0.155-1.466-0.41-2
							c-0.304-0.637-0.751-1.039-1.249-1.039h-4.06c-0.916,0-1.659,1.361-1.659,3.039l0,0
							C383.423,214.89,384.167,216.251,385.083,216.251z"/>
					</g>
					<g>
						<path style="fill:#C6D1E5;" d="M385.083,233.077h4.06c0.916,0,1.659-1.361,1.659-3.039l0,0c0-0.766-0.155-1.466-0.41-2
							c-0.304-0.637-0.751-1.039-1.249-1.039h-4.06c-0.916,0-1.659,1.361-1.659,3.04l0,0
							C383.423,231.716,384.167,233.077,385.083,233.077z"/>
					</g>
				</g>
			</g>
			<g>
				<path style="fill:#D7E1F4;" d="M604.901,256.146h-52.288c-9.28,0-16.803-7.523-16.803-16.803v-18.61
					c0-9.28,7.523-16.803,16.803-16.803h52.288c3.48,0,6.713,1.058,9.395,2.87c4.47,3.02,7.408,8.133,7.408,13.933v18.61
					C621.704,248.623,614.181,256.146,604.901,256.146z"/>
			</g>
			<g>
				<path style="fill:#B7C7E2;" d="M584.059,256.146h-31.446c-9.28,0-16.803-7.523-16.803-16.803v-18.61
					c0-9.28,7.523-16.803,16.803-16.803h31.446c9.28,0,16.803,7.523,16.803,16.803v18.61
					C600.862,248.623,593.339,256.146,584.059,256.146z"/>
			</g>
			<g>
				<path style="fill:#B7C7E2;" d="M584.059,256.146h-31.446c-9.28,0-16.803-7.523-16.803-16.803v-18.61
					c0-5.105,2.276-9.678,5.869-12.759c2.939-2.521,6.759-4.044,10.934-4.044h31.446c9.28,0,16.803,7.523,16.803,16.803v18.61
					C600.862,248.623,593.339,256.146,584.059,256.146z"/>
			</g>
			<g>
				<path style="fill:#00256F;" d="M579.321,248.672h-24.554c-7.246,0-13.12-5.369-13.12-11.993v-13.283
					c0-3.643,1.777-6.907,4.583-9.107c2.295-1.799,5.277-2.886,8.538-2.886h24.554c3.151,0,6.042,1.015,8.304,2.707
					c2.94,2.199,4.816,5.542,4.816,9.286v13.283C592.441,243.303,586.567,248.672,579.321,248.672z"/>
			</g>
			<g>
				<path style="fill:#D7E1F4;" d="M608.059,421.087h-52.288c-9.28,0-16.803-7.523-16.803-16.803V285.257
					c0-9.28,7.523-16.803,16.803-16.803h52.288c4.64,0,8.841,1.881,11.882,4.922c3.041,3.041,4.922,7.242,4.922,11.882v119.027
					C624.862,413.564,617.339,421.087,608.059,421.087z"/>
			</g>
			<g>
				<path style="fill:#B7C7E2;" d="M587.217,421.087h-31.446c-9.28,0-16.803-7.523-16.803-16.803V285.257
					c0-9.28,7.523-16.803,16.803-16.803h31.446c5.622,0,10.599,2.761,13.649,7c1.985,2.759,3.154,6.144,3.154,9.803v119.027
					C604.02,413.564,596.497,421.087,587.217,421.087z"/>
			</g>
			<g style="opacity:0.25;">
				<path style="fill:#FFFFFF;" d="M583.302,308.456h-25.099c-7.605,0-13.771-6.165-13.771-13.771v-6.142
					c0-3.756,1.504-7.161,3.942-9.645c2.499-2.546,5.98-4.126,9.829-4.126h25.099c7.606,0,13.771,6.165,13.771,13.771v6.142
					C597.073,302.29,590.907,308.456,583.302,308.456z"/>
			</g>
			<g style="opacity:0.25;">
				<path style="fill:#FFFFFF;" d="M549.008,230.661c0.221,4.314,2.383,7.709,0.057,7.828c-2.327,0.119-4.392-3.281-4.614-7.595
					c-0.221-4.314,1.486-7.908,3.813-8.027C550.59,222.749,548.786,226.348,549.008,230.661z"/>
			</g>
			<g>
				<path style="fill:#00256F;" d="M591.522,344.122c-9.53,0.001-18.618-5.248-26.538-15.398
					c-6.677-8.558-10.19-17.577-10.336-17.957c-0.695-1.804,0.205-3.83,2.008-4.524c1.803-0.696,3.83,0.205,4.524,2.008
					c0.125,0.323,12.839,32.498,33.984,28.527c3.815-0.714,6.776-2.684,9.055-6.023c8.82-12.923,3.782-40.109,3.729-40.382
					c-0.361-1.899,0.886-3.731,2.785-4.092c1.897-0.361,3.731,0.886,4.092,2.785c0.234,1.231,5.616,30.34-4.825,45.636
					c-3.334,4.884-7.892,7.898-13.549,8.957C594.8,343.968,593.154,344.122,591.522,344.122z"/>
			</g>
			<g>
				<path style="fill:#00256F;" d="M633.709,447.497c-0.144,0-0.289-0.009-0.436-0.027c-1.918-0.238-3.28-1.986-3.042-3.904
					c3.765-30.346-15.635-36.556-16.462-36.805c-1.843-0.555-2.902-2.497-2.358-4.343c0.544-1.846,2.466-2.91,4.315-2.378
					c0.26,0.075,25.979,7.911,21.453,44.389C636.958,446.2,635.449,447.497,633.709,447.497z"/>
			</g>
			<g>
				
					<ellipse transform="matrix(0.7071 -0.7071 0.7071 0.7071 -18.8705 408.4391)" style="fill:#D7E1F4;" cx="483.594" cy="226.998" rx="9.9" ry="9.9"/>
			</g>
			<g>
				<circle style="fill:#D7E1F4;" cx="554.331" cy="304.127" r="9.9"/>
			</g>
			<g>
				<path style="fill:#D7E1F4;" d="M619.389,444.228h31.158c0,0-1.895-19.141-17.292-17.942
					C620.611,427.27,619.389,444.228,619.389,444.228z"/>
			</g>
			<g>
				<path style="fill:#D7E1F4;" d="M513.273,444.228h31.158c0,0-1.895-19.141-17.292-17.942
					C514.496,427.27,513.273,444.228,513.273,444.228z"/>
			</g>
		</g>
		<path style="fill:#388EFA;" d="M561.403,396.847c0,3.101-2.514,5.615-5.615,5.615c-3.101,0-5.615-2.514-5.615-5.615
			c0-3.101,2.514-5.615,5.615-5.615C558.889,391.232,561.403,393.746,561.403,396.847z"/>
		<path style="fill:#BBBB59;" d="M576.347,396.847c0,3.101-2.514,5.615-5.615,5.615c-3.101,0-5.615-2.514-5.615-5.615
			c0-3.101,2.514-5.615,5.615-5.615C573.833,391.232,576.347,393.746,576.347,396.847z"/>
		<circle style="fill:#BE5D4E;" cx="585.716" cy="396.847" r="5.615"/>
	</g>
	<rect x="59.717" y="442.967" style="fill:#002156;" width="638.678" height="4.53"/>
	<g>
		<g>
			<g>
				<path style="fill:#BBBB59;" d="M692.389,422.106c-8.362,10.564-19.843,15.405-25.643,10.814c-5.8-4.591-3.723-16.877,4.64-27.44
					c8.362-10.564,19.843-15.405,25.643-10.814C702.829,399.257,700.752,411.543,692.389,422.106z"/>
			</g>
			<g>
				<path style="fill:#BBBB59;" d="M651.085,399.219c8.348,6.609,12.175,15.682,8.546,20.266
					c-3.628,4.584-13.338,2.942-21.686-3.667c-8.349-6.609-12.175-15.682-8.546-20.266
					C633.027,390.969,642.736,392.61,651.085,399.219z"/>
			</g>
			<g>
				<path style="fill:#BBBB59;" d="M676.165,379.225c-0.876,11.352-6.639,20.164-12.872,19.682
					c-6.232-0.481-10.574-10.074-9.698-21.425c0.877-11.352,6.64-20.164,12.872-19.682
					C672.7,358.281,677.042,367.873,676.165,379.225z"/>
			</g>
			<g>
				<path style="fill:#898731;" d="M664.011,443.017c-5.529-16.771,0.201-72.803,0.447-75.18l0.844,0.088
					c-0.061,0.58-5.958,58.229-0.485,74.827L664.011,443.017z"/>
			</g>
			<g>
				<path style="fill:#898731;" d="M661.936,429.153c-3.257-18.692-23.697-26.243-23.903-26.317l0.287-0.798
					c0.211,0.076,21.109,7.786,24.452,26.97L661.936,429.153z"/>
			</g>
			<g>
				<path style="fill:#898731;" d="M663.891,439.118l-0.845-0.073c0.73-8.454,7.073-16.677,12.265-22.086
					c5.602-5.837,11.11-9.749,11.165-9.787l0.49,0.693C686.748,408.018,665.25,423.375,663.891,439.118z"/>
			</g>
		</g>
	</g>
	<g>
		<g>
			<g>
				<path style="fill:#BBBB59;" d="M118.536,423.745c-8.362,10.564-19.843,15.405-25.643,10.814c-5.8-4.591-3.723-16.877,4.64-27.44
					c8.362-10.564,19.843-15.405,25.643-10.814C128.976,400.896,126.899,413.181,118.536,423.745z"/>
			</g>
			<g>
				<path style="fill:#BBBB59;" d="M77.232,400.857c8.349,6.609,12.175,15.682,8.547,20.266c-3.628,4.584-13.338,2.942-21.686-3.667
					c-8.349-6.609-12.175-15.682-8.547-20.266C59.174,392.607,68.883,394.248,77.232,400.857z"/>
			</g>
			<g>
				<path style="fill:#BBBB59;" d="M102.312,380.863c-0.877,11.351-6.64,20.164-12.872,19.682
					c-6.232-0.481-10.574-10.074-9.698-21.425c0.877-11.352,6.639-20.164,12.872-19.682
					C98.847,359.919,103.189,369.511,102.312,380.863z"/>
			</g>
			<g>
				<path style="fill:#898731;" d="M90.158,444.656c-5.529-16.771,0.201-72.803,0.447-75.18l0.844,0.088
					c-0.06,0.58-5.958,58.229-0.485,74.827L90.158,444.656z"/>
			</g>
			<g>
				<path style="fill:#898731;" d="M88.083,430.792c-3.257-18.692-23.697-26.243-23.903-26.317l0.287-0.799
					c0.211,0.076,21.109,7.786,24.452,26.97L88.083,430.792z"/>
			</g>
			<g>
				<path style="fill:#898731;" d="M90.038,440.756l-0.845-0.073c0.73-8.454,7.073-16.677,12.265-22.086
					c5.602-5.837,11.11-9.748,11.165-9.787l0.49,0.693C112.895,409.656,91.397,425.014,90.038,440.756z"/>
			</g>
		</g>
	</g>
</g>
</svg>
